<svg aria-hidden="true" style="position: absolute; width: 0; height: 0; overflow: hidden;" version="1.1" xmlns="http://www.w3.org/2000/svg" xmlns:xlink="http://www.w3.org/1999/xlink">
<defs>
<symbol id="icon-fullscreen_exit" viewBox="0 0 24 24">
<path d="M15.984 8.016h3v1.969h-4.969v-4.969h1.969v3zM14.016 18.984v-4.969h4.969v1.969h-3v3h-1.969zM8.016 8.016v-3h1.969v4.969h-4.969v-1.969h3zM5.016 15.984v-1.969h4.969v4.969h-1.969v-3h-3z"></path>
</symbol>
<symbol id="icon-fullscreen" viewBox="0 0 24 24">
<path d="M14.016 5.016h4.969v4.969h-1.969v-3h-3v-1.969zM17.016 17.016v-3h1.969v4.969h-4.969v-1.969h3zM5.016 9.984v-4.969h4.969v1.969h-3v3h-1.969zM6.984 14.016v3h3v1.969h-4.969v-4.969h1.969z"></path>
</symbol>
<symbol id="icon-arrow-bold-left" viewBox="0 0 20 20">
<path d="M10 2.5v3.5h7v8h-7v3.5l-7.5-7.5 7.5-7.5z"></path>
</symbol>
<symbol id="icon-arrow-bold-right" viewBox="0 0 20 20">
<path d="M17.5 10l-7.5 7.5v-3.5h-7v-8h7v-3.5l7.5 7.5z"></path>
</symbol>
<symbol id="icon-save" viewBox="0 0 20 20">
<path d="M15.173 2h-11.173c-1.101 0-2 0.9-2 2v12c0 1.1 0.899 2 2 2h12c1.101 0 2-0.9 2-2v-10.873l-2.827-3.127zM14 8c0 0.549-0.45 1-1 1h-6c-0.55 0-1-0.451-1-1v-5h8v5zM13 4h-2v4h2v-4z"></path>
</symbol>
<symbol id="icon-add-outline" viewBox="0 0 20 20">
<path d="M11 9h4v2h-4v4h-2v-4h-4v-2h4v-4h2v4zM10 20c-5.523 0-10-4.477-10-10s4.477-10 10-10v0c5.523 0 10 4.477 10 10s-4.477 10-10 10v0zM10 18c4.418 0 8-3.582 8-8s-3.582-8-8-8v0c-4.418 0-8 3.582-8 8s3.582 8 8 8v0z"></path>
</symbol>
<symbol id="icon-add-solid" viewBox="0 0 20 20">
<path d="M11 9v-4h-2v4h-4v2h4v4h2v-4h4v-2h-4zM10 20c-5.523 0-10-4.477-10-10s4.477-10 10-10v0c5.523 0 10 4.477 10 10s-4.477 10-10 10v0z"></path>
</symbol>
<symbol id="icon-edit-pencil" viewBox="0 0 20 20">
<path d="M12.3 3.7l4 4-12.3 12.3h-4v-4l12.3-12.3zM13.7 2.3l2.3-2.3 4 4-2.3 2.3-4-4z"></path>
</symbol>
<symbol id="icon-location-restroom" viewBox="0 0 20 20">
<path d="M12 16h-3l2-4.5v-2.5c0-1.1 0.9-2 2-2h2c1.105 0 2 0.895 2 2v0 2.5l2 4.5h-3v4h-4v-4zM7 13h2v-4c0-1.105-0.895-2-2-2v0h-4c-1.105 0-2 0.895-2 2v0 4h2v7h4v-7zM5 6c-1.657 0-3-1.343-3-3s1.343-3 3-3v0c1.657 0 3 1.343 3 3s-1.343 3-3 3v0zM14 6c-1.657 0-3-1.343-3-3s1.343-3 3-3v0c1.657 0 3 1.343 3 3s-1.343 3-3 3v0z"></path>
</symbol>
<symbol id="icon-stand-by" viewBox="0 0 20 20">
<path d="M4.16 4.16l1.42 1.42c-1.585 1.292-2.588 3.244-2.588 5.43 0 3.86 3.13 6.99 6.99 6.99 0.006 0 0.013 0 0.019-0h-0.001c3.862-0.006 6.99-3.137 6.99-7 0-2.18-0.996-4.127-2.558-5.41l-0.012-0.010 1.42-1.42c1.936 1.661 3.155 4.11 3.155 6.844 0 4.971-4.029 9-9 9s-9-4.029-9-9c0-2.734 1.219-5.183 3.143-6.834l0.012-0.010zM9 0h2v8h-2v-8z"></path>
</symbol>
<symbol id="icon-user-group" viewBox="0 0 20 20">
<path d="M7 8c-2.209 0-4-1.791-4-4s1.791-4 4-4v0c2.209 0 4 1.791 4 4s-1.791 4-4 4v0zM7 9c2.15 0 4.2 0.4 6.1 1.090l-1.1 5.91h-1.25l-0.75 4h-6l-0.75-4h-1.25l-1.1-5.91c1.813-0.684 3.909-1.083 6.097-1.090h0.003zM15.31 9.17c1.32 0.18 2.59 0.48 3.8 0.92l-1.11 5.91h-1.25l-0.75 4h-3.96l0.37-2h1.25l1.65-8.83zM13 0c0.010-0 0.022-0 0.034-0 2.209 0 4 1.791 4 4s-1.791 4-4 4c-0.49 0-0.958-0.088-1.392-0.249l0.028 0.009c0.832-1.017 1.336-2.329 1.336-3.76s-0.504-2.743-1.344-3.771l0.008 0.011c0.43-0.14 0.86-0.24 1.33-0.24z"></path>
</symbol>
<symbol id="icon-user-solid-circle" viewBox="0 0 20 20">
<path d="M10 20c-5.523 0-10-4.477-10-10s4.477-10 10-10v0c5.523 0 10 4.477 10 10s-4.477 10-10 10v0zM7 6v2c0 1.657 1.343 3 3 3s3-1.343 3-3v0-2c0-1.657-1.343-3-3-3s-3 1.343-3 3v0zM3.35 14.44c1.456 2.155 3.89 3.553 6.65 3.553s5.194-1.398 6.632-3.525l0.018-0.028c-1.951-0.918-4.238-1.453-6.65-1.453s-4.699 0.536-6.748 1.495l0.098-0.041z"></path>
</symbol>
<symbol id="icon-group" viewBox="0 0 30 28">
<path d="M9.266 14c-1.625 0.047-3.094 0.75-4.141 2h-2.094c-1.563 0-3.031-0.75-3.031-2.484 0-1.266-0.047-5.516 1.937-5.516 0.328 0 1.953 1.328 4.062 1.328 0.719 0 1.406-0.125 2.078-0.359-0.047 0.344-0.078 0.688-0.078 1.031 0 1.422 0.453 2.828 1.266 4zM26 23.953c0 2.531-1.672 4.047-4.172 4.047h-13.656c-2.5 0-4.172-1.516-4.172-4.047 0-3.531 0.828-8.953 5.406-8.953 0.531 0 2.469 2.172 5.594 2.172s5.063-2.172 5.594-2.172c4.578 0 5.406 5.422 5.406 8.953zM10 4c0 2.203-1.797 4-4 4s-4-1.797-4-4 1.797-4 4-4 4 1.797 4 4zM21 10c0 3.313-2.688 6-6 6s-6-2.688-6-6 2.688-6 6-6 6 2.688 6 6zM30 13.516c0 1.734-1.469 2.484-3.031 2.484h-2.094c-1.047-1.25-2.516-1.953-4.141-2 0.812-1.172 1.266-2.578 1.266-4 0-0.344-0.031-0.688-0.078-1.031 0.672 0.234 1.359 0.359 2.078 0.359 2.109 0 3.734-1.328 4.062-1.328 1.984 0 1.937 4.25 1.937 5.516zM28 4c0 2.203-1.797 4-4 4s-4-1.797-4-4 1.797-4 4-4 4 1.797 4 4z"></path>
</symbol>
<symbol id="icon-files" viewBox="0 0 24 24">
<path d="M5 0v3h-3v21h17v-3h3v-21h-17zM17 22h-13v-17h1v16h12v1zM20 19h-13v-17h13v17zM15 5h-6v2h6v-2zM18 8h-9v1h9v-1zM18 10h-9v1h9v-1zM18 12h-9v1h9v-1zM12 14h-3v1h3v-1z"></path>
</symbol>
<symbol id="icon-envelope" viewBox="0 0 20 20">
<path d="M18 2c1.105 0 2 0.895 2 2v0 12c0 1.105-0.895 2-2 2v0h-16c-1.105 0-2-0.895-2-2v0-12c0-1.1 0.9-2 2-2h16zM13.63 11.1l6.37 4.9v-2l-5.12-3.9 5.12-4.1v-2l-10 8-10-8v2l5.12 4.1-5.12 3.9v2l6.37-4.9 3.63 2.9 3.63-2.9z"></path>
</symbol>
<symbol id="icon-send" viewBox="0 0 20 20">
<path d="M0 0l20 10-20 10v-20zM0 8v4l10-2-10-2z"></path>
</symbol>
</defs>
</svg>
